<?xml version="1.0" encoding="UTF-8"?><svg id="a" xmlns="http://www.w3.org/2000/svg" viewBox="0 0 1280 291.65"><defs><style>.b{fill:#040000;}.c{fill:#ffb703;}.d{fill:#16aa56;}</style></defs><g><g><path class="b" d="M203.07,141.71c37.17,0,67.3-30.13,67.3-67.3S240.24,7.11,203.07,7.11s-67.3,30.13-67.3,67.3c0,37.17,30.13,67.3,67.3,67.3Z"/><path class="d" d="M68.44,141.71c18.58,0,35.41-7.53,47.59-19.71l-47.59-47.59L116.03,26.82c-12.18-12.18-29-19.71-47.59-19.71C31.27,7.11,1.14,37.24,1.14,74.41c0,37.17,30.14,67.3,67.3,67.3Z"/><path class="c" d="M203.07,157.11c-37.15,0-67.26,30.11-67.26,67.26s30.11,67.26,67.26,67.26h67.26l-67.26-67.26,67.26-67.26h-67.26Z"/><polygon class="b" points="1.14 291.65 135.77 157.09 1.14 157.09 1.14 291.65"/></g><g><path class="b" d="M391.78,89.97c27.75,0,48.69,15.62,55.34,40.88h-31.24c-4.82-9.97-13.63-14.96-24.43-14.96-17.45,0-29.41,12.96-29.41,33.57s11.97,33.57,29.41,33.57c10.8,0,19.61-4.99,24.43-14.96h31.24c-6.65,25.26-27.59,40.72-55.34,40.72-34.4,0-58.66-24.43-58.66-59.33s24.26-59.49,58.66-59.49Z"/><path class="b" d="M515.59,209.12c-33.07,0-59.99-24.76-59.99-59.83s26.92-59.66,59.99-59.66,59.66,24.6,59.66,59.66-26.59,59.83-59.66,59.83Zm0-25.92c18.61,0,30.74-13.46,30.74-33.9s-12.13-33.9-30.74-33.9-30.91,13.13-30.91,33.9c-.01,20.44,11.96,33.9,30.91,33.9Z"/><path class="b" d="M631.58,91.3h28.42v79.44c0,25.09-15.29,38.39-38.39,38.39s-40.72-13.96-40.72-40.22h28.25c0,9.97,4.32,14.79,11.63,14.79,6.81,0,10.8-4.32,10.8-12.96V91.3h.01Z"/><path class="b" d="M751.4,187.35h-43.54l-6.98,20.61h-29.75l42.21-116.66h32.9l42.21,116.66h-30.08l-6.97-20.61Zm-21.77-64.64l-14.29,42.71h28.75l-14.46-42.71Z"/><path class="b" d="M797.1,91.3h33.57l32.74,80.77,32.41-80.77h33.4v116.66h-28.42v-69.96l-26.09,69.96h-22.93l-26.26-70.13v70.13h-28.42V91.3Z"/></g></g><g><polygon class="b" points="1059.67 161.32 977.76 85.86 977.76 206.97 1000.84 206.97 1000.84 137.26 1082.57 212.73 1082.57 91.62 1059.67 91.62 1059.67 161.32"/><polygon class="b" points="1122.67 91.62 1107.51 91.62 1107.51 206.97 1130.59 206.97 1130.59 157.86 1172.77 157.86 1172.77 138.09 1130.59 138.09 1130.59 112.38 1174.42 112.38 1174.42 91.62 1130.59 91.62 1122.67 91.62"/><polygon class="b" points="1193.01 91.62 1193.01 113.04 1223.99 113.04 1223.99 206.97 1247.71 206.97 1247.71 113.04 1278.85 113.04 1278.85 91.62 1193.01 91.62"/></g></svg>